<svg width="20" height="21" viewBox="0 0 20 21" fill="none" xmlns="http://www.w3.org/2000/svg">
<g filter="url(#filter0_d)">
<path d="M14.2931 2.6961C14.1909 2.63814 14.0647 2.60414 13.931 2.56816C13.5849 2.47503 13.1542 2.35912 12.8558 1.76506C12.8385 1.72883 12.8229 1.69169 12.8091 1.65377C12.7439 1.48429 12.6546 1.25217 12.3115 1.11803C12.3055 1.11573 12.2993 1.11387 12.2931 1.11247C12.281 1.09932 12.2669 1.08867 12.2513 1.08103C12.1594 1.03788 12.065 1.0011 11.9687 0.970914C11.9165 0.954994 11.8054 0.921148 11.6991 0.928308L11.4374 0.877121C11.4146 0.872669 11.3912 0.874362 11.3692 0.882051C11.3472 0.889739 11.3273 0.903185 11.3113 0.921199C11.0745 1.18666 11.1322 1.5808 11.1667 1.734L11.0508 1.9908C11.0418 2.01067 11.037 2.03241 11.0365 2.05451C11.0361 2.07662 11.0401 2.09857 11.0483 2.11882C11.1205 2.2974 11.2841 2.82811 11.186 3.11637C11.1858 3.11703 11.1856 3.11767 11.1853 3.11833C11.1769 3.14344 11.1658 3.16738 11.1521 3.18965C10.72 3.87944 10.5496 4.25273 10.4252 4.52532C10.3862 4.61076 10.3525 4.68455 10.3157 4.7581C9.69733 5.99389 7.9794 7.11943 6.96932 7.22714C6.90711 7.23379 6.83495 7.24131 6.75585 7.24953C6.28492 7.29856 5.57324 7.37263 5.24029 7.44171C5.2265 7.44432 5.21257 7.44595 5.19859 7.44659C5.19702 7.44659 5.19552 7.44674 5.1939 7.44682C5.13313 7.44984 5.04594 7.44428 4.96084 7.43882C4.74934 7.42524 4.53062 7.41122 4.3982 7.49298C4.38227 7.50283 4.36826 7.51596 4.35697 7.53162C4.31579 7.5888 4.11088 7.88562 4.11721 8.11584C4.12222 8.29502 4.30722 8.45607 4.58887 8.68116C4.63661 8.71924 4.68168 8.75537 4.71543 8.78462C5.20485 9.20865 5.76831 9.49097 6.23019 9.64791C6.22181 9.6588 6.21488 9.67092 6.20961 9.68391C6.18294 9.75262 6.05322 10.1068 6.11629 10.3321C6.16785 10.5166 6.42266 10.6328 6.7769 10.7767C6.81468 10.792 6.84955 10.8062 6.87922 10.8189C7.5636 11.1106 8.27882 11.2115 8.87767 11.2115C9.34054 11.2115 9.73389 11.1512 9.98912 11.0718C10.4379 10.9359 10.8706 10.7441 11.2786 10.5002C11.2262 10.5698 11.1756 10.6388 11.1291 10.7059C11.0953 10.7546 11.0064 10.8322 10.9205 10.9072C10.7555 11.0511 10.5849 11.2 10.5376 11.3569C10.5319 11.3759 10.5297 11.3958 10.531 11.4156C10.536 11.4879 10.5684 11.857 10.7159 12.0227C10.7844 12.0996 10.8961 12.1252 11.0489 12.1252C11.1526 12.1252 11.2751 12.1134 11.4159 12.0979C11.4749 12.0914 11.5307 12.0852 11.5738 12.0823C12.4742 12.0214 13.2484 11.6536 13.9405 10.9584C14.8517 10.0432 15.928 8.39907 15.8812 5.76388C15.865 4.84976 15.253 3.24038 14.2931 2.6961ZM12.5199 1.85641C12.5232 1.81228 12.5266 1.76429 12.5267 1.71293C12.5344 1.73174 12.5418 1.75102 12.5495 1.771C12.567 1.81863 12.5868 1.86524 12.6087 1.91065C12.8258 2.34285 13.1022 2.56387 13.3706 2.69377L13.2711 2.91134L12.8571 2.95913C12.6762 2.73569 12.5251 2.43902 12.5145 1.98265C12.5136 1.94409 12.5167 1.90151 12.5199 1.85641ZM11.7189 1.23102C11.7871 1.22672 11.9576 1.27712 12.1107 1.3471C12.2613 1.5326 12.2513 1.6721 12.2396 1.83257C12.235 1.88502 12.2329 1.93769 12.2334 1.99037C12.2419 2.35945 12.3287 2.67445 12.4988 2.95334C12.5294 3.00359 12.5618 3.05066 12.595 3.09519L12.3993 3.2533L12.1901 3.17967C12.1847 3.00348 12.1344 2.80082 12.0395 2.57352C11.9796 2.43156 11.9101 2.29458 11.8316 2.16369L11.8323 1.87655C11.8324 1.84631 11.8242 1.81674 11.8087 1.79159C11.8067 1.78844 11.6205 1.47428 11.7189 1.23102ZM11.4498 1.70074C11.4335 1.6405 11.4229 1.57861 11.4182 1.51605C11.44 1.65772 11.485 1.79403 11.551 1.91857L11.5503 2.20952C11.5502 2.24088 11.5591 2.2715 11.5757 2.29722C11.6699 2.44342 11.8676 2.81265 11.9041 3.11749L11.4885 3.04639C11.5349 2.67478 11.3943 2.2356 11.3313 2.06309L11.4428 1.81614C11.459 1.78015 11.4615 1.73868 11.4498 1.70069V1.70074ZM4.63928 8.34128C4.5373 8.25642 4.42077 8.15237 4.39844 8.0988C4.40167 8.01475 4.48841 7.85286 4.55833 7.74861C4.63736 7.72322 4.82669 7.73543 4.94429 7.74297C4.97523 7.74495 5.00507 7.74683 5.03399 7.74843L4.9802 8.07676L4.63928 8.34128ZM4.89116 8.54666C4.88612 8.54227 4.8805 8.5376 4.87513 8.53305L5.13648 8.33026C5.26169 8.36568 5.55025 8.4431 5.8754 8.50124C5.912 8.50736 5.94936 8.49759 5.97935 8.47404C6.00934 8.4505 6.02955 8.41509 6.03559 8.3755C6.04162 8.33591 6.033 8.29534 6.01158 8.2626C5.99017 8.22986 5.95769 8.2076 5.92122 8.20064C5.65546 8.15311 5.41044 8.09085 5.26979 8.05259L5.32178 7.7352C5.65356 7.67033 6.33041 7.59987 6.78273 7.5528C6.86209 7.54455 6.93449 7.537 6.9969 7.53035C8.0969 7.4129 9.8942 6.23975 10.5629 4.90326C10.6022 4.8247 10.6387 4.74487 10.6772 4.66037C10.8048 4.38108 10.9636 4.03323 11.3849 3.36073C11.3893 3.35367 11.3932 3.34633 11.3973 3.3391L11.8695 3.41994C11.5503 4.42579 11.4592 4.76465 11.3792 5.13089C11.084 6.48149 10.0029 8.16651 8.70451 8.64843C8.40493 8.75961 7.52652 9.09965 7.06532 9.33471C7.01254 9.36163 6.89994 9.38768 6.7911 9.41286C6.73954 9.4248 6.68762 9.43686 6.63686 9.44988C6.16867 9.34268 5.47461 9.05217 4.89116 8.54666ZM6.87212 10.49C6.74903 10.44 6.43754 10.3129 6.38387 10.2371C6.36512 10.1518 6.41228 9.96128 6.45653 9.8357C6.49797 9.80685 6.57751 9.78017 6.66236 9.75698C6.67161 9.75554 6.68071 9.7531 6.68952 9.7497C6.74521 9.7351 6.80165 9.72202 6.84979 9.71087C6.92605 9.6931 6.99613 9.67688 7.05775 9.65857L7.19158 9.92842L6.87212 10.49ZM9.9118 10.7791C9.40848 10.9352 8.23708 11.0135 7.14069 10.5987L7.43305 10.0847C7.65325 10.0749 7.87235 10.0459 8.08822 9.99781C8.12479 9.98987 8.15695 9.96651 8.17762 9.93288C8.19829 9.89925 8.20579 9.8581 8.19845 9.81848C8.19112 9.77886 8.16955 9.74403 8.13851 9.72163C8.10747 9.69924 8.06948 9.69112 8.03291 9.69907C7.83652 9.74258 7.6373 9.76951 7.43706 9.77963L7.32029 9.54413C7.79057 9.32098 8.52758 9.03632 8.79564 8.93671C9.43276 8.70023 10.0799 8.16591 10.6178 7.43219C11.1135 6.75612 11.4907 5.94293 11.6529 5.20112C11.7316 4.84085 11.8222 4.50511 12.1464 3.48471L12.3816 3.56744C12.403 3.57495 12.4257 3.57679 12.4479 3.57282C12.4701 3.56884 12.4911 3.55916 12.5091 3.54458L12.7876 3.3196C12.8507 3.3848 12.9126 3.44307 12.9692 3.49619C13.0669 3.58795 13.1513 3.66722 13.2001 3.74174C13.7592 4.59616 13.6279 6.26499 13.3561 7.17709C13.0486 8.20899 12.562 9.04287 11.9098 9.65557C11.3712 10.1617 10.7176 10.5292 9.9118 10.7791ZM11.2582 11.8082C11.1269 11.8204 10.9654 11.8299 10.9136 11.8055C10.8639 11.7409 10.8277 11.5579 10.8148 11.4297C10.8576 11.3535 11.0053 11.2246 11.097 11.1445C11.145 11.1027 11.1898 11.0635 11.2299 11.0258L11.4364 11.3063L11.2582 11.8082ZM13.7494 10.7352C13.5141 10.9715 12.7997 11.6886 11.5705 11.7772L11.7277 11.3343C11.7365 11.3095 11.7392 11.2826 11.7355 11.2564C11.7317 11.2301 11.7217 11.2054 11.7064 11.1846L11.4204 10.796C11.5138 10.6674 11.6183 10.5339 11.7279 10.3941C11.8744 10.2073 12.0256 10.0142 12.1539 9.82638C12.8215 9.17826 13.3081 8.33016 13.6238 7.27081C13.8936 6.36538 14.0794 4.55881 13.4295 3.56566C13.3611 3.46118 13.2602 3.36642 13.1534 3.26605C13.1426 3.25589 13.1316 3.24556 13.1206 3.23517L13.3777 3.20549C13.4008 3.2028 13.4229 3.19395 13.4421 3.17973C13.4613 3.16551 13.4769 3.14637 13.4875 3.12401C13.8606 3.20176 14.1909 3.45254 14.551 4.27286C14.5589 4.29107 14.57 4.30741 14.5837 4.32095C14.5974 4.33449 14.6135 4.34496 14.6309 4.35176C14.6484 4.35855 14.6669 4.36154 14.6854 4.36054C14.7039 4.35954 14.7221 4.35459 14.7389 4.34595C14.7556 4.33732 14.7706 4.32518 14.783 4.31024C14.7954 4.29529 14.805 4.27784 14.8111 4.25888C14.8173 4.23992 14.8199 4.21983 14.8189 4.19976C14.8178 4.1797 14.8131 4.16006 14.805 4.14197C14.5509 3.56335 14.2296 3.01288 13.6159 2.84383L13.6365 2.79876C13.7157 2.82415 13.7919 2.84469 13.8632 2.86386C13.9851 2.89669 14.0904 2.92503 14.1627 2.96603C15.0184 3.45122 15.5856 4.95072 15.6001 5.76984C15.6449 8.2922 14.6184 9.8622 13.7494 10.7352Z" fill="black"/>
</g>
<defs>
<filter id="filter0_d" x="0" y="0" width="20" height="21" filterUnits="userSpaceOnUse" color-interpolation-filters="sRGB">
<feFlood flood-opacity="0" result="BackgroundImageFix"/>
<feColorMatrix in="SourceAlpha" type="matrix" values="0 0 0 0 0 0 0 0 0 0 0 0 0 0 0 0 0 0 127 0"/>
<feOffset dy="4"/>
<feGaussianBlur stdDeviation="2"/>
<feColorMatrix type="matrix" values="0 0 0 0 0 0 0 0 0 0 0 0 0 0 0 0 0 0 0.25 0"/>
<feBlend mode="normal" in2="BackgroundImageFix" result="effect1_dropShadow"/>
<feBlend mode="normal" in="SourceGraphic" in2="effect1_dropShadow" result="shape"/>
</filter>
</defs>
</svg>
