<svg width="23" height="23" viewBox="0 0 23 23" fill="none" xmlns="http://www.w3.org/2000/svg">
<path d="M6.61479 18.2726C5.40267 18.2585 4.42123 19.2707 4.42034 20.5216C4.41946 21.7726 5.39945 22.8075 6.61157 22.8216C7.82369 22.8356 8.81615 21.8236 8.81704 20.5726C8.81792 19.3217 7.82691 18.2866 6.61479 18.2726ZM0.0161133 0L0.0145016 2.27449L2.21836 2.30005L6.17918 10.9777L4.68961 13.7467C4.51307 14.0631 4.41363 14.4373 4.41335 14.8353C4.41246 16.0863 5.40347 17.1213 6.6156 17.1353L19.8387 17.2887L19.8403 15.0142L7.08002 14.8662C6.92575 14.8644 6.80462 14.7379 6.80474 14.5787L6.83789 14.4426L7.83094 12.6004L16.0403 12.6956C16.8668 12.7052 17.5944 12.2474 17.9695 11.5466L21.9196 4.21165C22.0079 4.05346 22.0521 3.86063 22.0523 3.6673C22.0527 3.04182 21.5572 2.52431 20.9511 2.51728L4.65362 2.32829L3.61942 0.0417857L0.0161133 0ZM17.6341 18.4004C16.422 18.3863 15.4405 19.3985 15.4396 20.6494C15.4387 21.9004 16.4187 22.9353 17.6309 22.9493C18.843 22.9634 19.8354 21.9514 19.8363 20.7004C19.8372 19.4494 18.8462 18.4144 17.6341 18.4004Z" fill="white"/>
</svg>
