<svg width="48" height="48" viewBox="0 0 48 48" fill="none" xmlns="http://www.w3.org/2000/svg">
<path d="M36.651 11.2258L7.75273 22.372C5.78038 23.1633 5.79208 24.2634 7.39322 24.7539L14.6005 27.0035L17.3582 35.4583C17.6935 36.3837 17.5282 36.7507 18.4999 36.7507C19.2499 36.7507 19.5825 36.4088 20.0002 36.0008C20.2658 35.7409 21.8428 34.2077 23.6037 32.4957L31.1006 38.0347C32.4801 38.7958 33.4762 38.4016 33.8198 36.7535L38.7409 13.5631C39.2448 11.5431 37.9708 10.6268 36.651 11.2258ZM15.7316 26.4866L31.9769 16.2374C32.7879 15.7455 33.5315 16.01 32.921 16.5519L19.0108 29.1025L18.4691 34.8792L15.7316 26.4866Z" fill="#C4C4C4"/>
</svg>
