<svg width="48" height="48" viewBox="0 0 48 48" fill="none" xmlns="http://www.w3.org/2000/svg">
<path fill-rule="evenodd" clip-rule="evenodd" d="M38.0855 11.771C39.6275 12.1862 40.8433 13.402 41.2585 14.944C42.0295 17.7611 41.9998 23.6326 41.9998 23.6326C41.9998 23.6326 41.9998 29.4744 41.2585 32.2915C40.8433 33.8335 39.6275 35.0493 38.0855 35.4645C35.2684 36.2058 23.9999 36.2058 23.9999 36.2058C23.9999 36.2058 12.7611 36.2058 9.91432 35.4348C8.37231 35.0197 7.1565 33.8039 6.74135 32.2619C6 29.4744 6 23.6029 6 23.6029C6 23.6029 6 17.7611 6.74135 14.944C7.1565 13.402 8.40197 12.1565 9.91432 11.7413C12.7314 11 23.9999 11 23.9999 11C23.9999 11 35.2684 11 38.0855 11.771ZM29.7824 23.397L20.4118 28.794V18L29.7824 23.397Z" fill="#C4C4C4"/>
</svg>
