<svg width="43" height="43" viewBox="0 0 43 43" fill="none" xmlns="http://www.w3.org/2000/svg">
<path d="M37.1416 26.1528L37.1534 16.3119C37.154 15.834 36.767 15.4461 36.2891 15.4454L33.1566 15.4417L33.1585 13.8468C33.1588 13.6173 33.0679 13.3971 32.9058 13.2346C32.7437 13.0721 32.5237 12.9806 32.2942 12.9804L27.3737 12.9745C26.8958 12.9739 26.5078 13.3609 26.5072 13.8389L26.5024 17.8939L15.932 17.8812L15.9369 13.8262C15.9376 13.3483 15.5505 12.9604 15.0726 12.9597L10.1521 12.9538C9.92261 12.9535 9.70242 13.0444 9.53993 13.2065C9.37745 13.3686 9.28599 13.5886 9.28575 13.8181L9.28383 15.413L6.15132 15.4092C5.6734 15.4086 5.28546 15.7956 5.28488 16.2736L5.27302 26.1144C5.27273 26.3534 5.36934 26.5699 5.52572 26.7266C5.68211 26.8834 5.89843 26.9805 6.13733 26.9808L9.26984 26.9846L9.26792 28.5795C9.26764 28.809 9.35853 29.0292 9.52062 29.1917C9.68272 29.3542 9.90274 29.4456 10.1322 29.4459L15.0527 29.4517C15.5307 29.4524 15.9186 29.0653 15.9192 28.5874L15.9241 24.5323L26.4945 24.5451L26.4896 28.6001C26.4893 28.8391 26.5859 29.0555 26.7423 29.2123C26.8987 29.3691 27.1149 29.4662 27.3539 29.4665L32.2744 29.4724C32.5039 29.4727 32.7241 29.3818 32.8866 29.2197C33.0491 29.0576 33.1406 28.8376 33.1408 28.6081L33.1427 27.0132L36.2752 27.017C36.7532 27.0177 37.1411 26.6307 37.1416 26.1528ZM7.00481 25.2511L7.01458 17.141L9.28166 17.1437L9.27193 25.2539L7.00481 25.2511ZM14.1895 27.72L10.9997 27.7162L11.0154 14.6855L14.2052 14.6894L14.1895 27.72ZM15.9262 22.8016L15.93 19.6119L26.5004 19.6246L26.4966 22.8144L15.9262 22.8016ZM28.2213 27.7369L28.237 14.7063L31.4268 14.7101L31.4111 27.7408L28.2213 27.7369ZM33.1448 25.2825L33.1546 17.1724L35.4217 17.1751L35.4119 25.2853L33.1448 25.2825Z" fill="#3C484B"/>
</svg>
