<svg width="89" height="89" viewBox="0 0 89 89" fill="none" xmlns="http://www.w3.org/2000/svg">
<g clip-path="url(#clip0)">
<path d="M87.6965 28.798C80.9368 28.798 74.6824 30.3191 69.6094 33.1972C64.8532 35.8955 61.3508 39.6746 59.3953 44.192C55.1651 41.7019 49.9274 40.3169 44.5009 40.3169C40.5396 40.3169 36.745 41.0254 33.3201 42.3805L34.6055 31.2429L35.5927 22.6898C38.0328 22.4596 39.9034 21.8346 41.3331 21.0548L43.4868 23.7214C43.9278 24.2676 44.722 24.3667 45.2833 23.9453L56.8022 15.3062C57.1044 15.0794 57.2936 14.7326 57.3203 14.3555C57.3471 13.9787 57.2089 13.6086 56.9417 13.3413L43.9831 0.382587C43.6823 0.0818694 43.2537 -0.0524976 42.8344 0.0206829C42.416 0.0947325 32.6137 1.93433 27.6151 11.9979C26.5673 12.8789 22.1685 16.7338 16.9562 23.5436C11.5655 30.5858 4.27298 42.249 0.142719 57.8195C-0.193634 59.0878 0.0719717 60.4111 0.871569 61.4504C1.66925 62.4874 2.87734 63.0823 4.18555 63.0823H6.54123C7.61009 64.0745 10.76 66.8001 15.8014 69.5232C15.9984 69.6296 16.2106 69.68 16.4199 69.68C16.8835 69.68 17.3323 69.4321 17.568 68.9958C17.9103 68.3622 17.6741 67.5715 17.0406 67.2292C14.2059 65.698 11.9948 64.156 10.4671 62.9726C10.9267 62.7711 11.2481 62.3128 11.2481 61.7788C11.2481 61.0586 10.6644 60.4751 9.94439 60.4751H7.06462H4.18538C3.69293 60.4751 3.2382 60.2512 2.93801 59.8608C2.6359 59.4683 2.53577 58.968 2.66284 58.4882C6.67247 43.3724 13.7442 32.0433 18.9706 25.2012C19.4525 24.5706 19.927 23.9674 20.3937 23.3879L31.7197 33.5038L30.547 43.6639C30.1693 43.8661 29.7954 44.0736 29.4302 44.2933C28.8131 44.6643 28.6136 45.4652 28.9845 46.0823C29.3556 46.6996 30.1565 46.8991 30.7735 46.528C34.6384 44.2045 39.5135 42.9246 44.5007 42.9246C50.8026 42.9246 56.7929 44.9438 60.9357 48.4644C61.1808 48.6728 61.4808 48.7747 61.7793 48.7747C62.1487 48.7747 62.5154 48.6186 62.7734 48.3151C63.2398 47.7665 63.1729 46.9438 62.6243 46.4776C62.2956 46.1983 61.9556 45.9283 61.607 45.6662C65.0031 37.2762 74.5343 31.8001 86.3928 31.4262V86.3924H79.8427C72.7293 86.3924 66.2409 80.4881 62.7381 70.9091C65.3269 69.3134 67.6555 67.3599 69.7031 65.0625C71.1568 67.4688 71.9943 70.2872 71.9943 73.2976C71.9943 74.0178 72.5779 74.6013 73.298 74.6013C74.0182 74.6013 74.6017 74.0178 74.6017 73.2976C74.6017 69.1587 73.241 65.3318 70.9441 62.2397C70.8947 62.1567 70.8358 62.0783 70.7669 62.0063C67.3674 57.5769 62.022 54.7155 56.0198 54.7155H50.2604C49.5403 54.7155 48.9567 55.2991 48.9567 56.0192C48.9567 56.7394 49.5403 57.3229 50.2604 57.3229H56.0198C60.8601 57.3229 65.2042 59.4874 68.1361 62.8987C65.9638 65.4343 63.4539 67.5192 60.6166 69.1517C60.5559 69.1792 60.4991 69.2122 60.4447 69.2479C54.5934 72.562 47.362 73.9695 38.8227 73.4362C32.9526 73.0692 27.2485 71.7532 21.8688 69.5249C21.2036 69.2486 20.441 69.5653 20.1655 70.2305C19.89 70.8957 20.2058 71.6583 20.8711 71.9338C26.5171 74.2726 32.5022 75.6535 38.66 76.0385C39.8721 76.1143 41.0614 76.152 42.2297 76.152C47.863 76.152 52.9771 75.2721 57.47 73.5261C58.4898 73.1297 59.4787 72.6873 60.437 72.2015C64.3662 82.6043 71.703 88.9996 79.8427 88.9996H87.6965C88.4167 88.9996 89.0002 88.4161 89.0002 87.696V30.1017C89.0002 29.3815 88.4165 28.798 87.6965 28.798ZM42.6533 2.7407L54.0349 14.1223L44.7248 21.1048L43.4571 19.5352C45.241 17.8748 45.7246 16.1732 45.7604 16.039C45.9459 15.3432 45.5343 14.6218 44.8385 14.4362C44.143 14.2514 43.4305 14.6573 43.245 15.353C43.2141 15.4588 42.7505 16.9396 40.9281 18.2332C40.885 18.2604 40.8426 18.2896 40.8021 18.3222C40.8017 18.3224 40.8015 18.3228 40.8014 18.3229C39.5719 19.1601 37.7544 19.9016 35.0907 20.1154L30.1688 12.7327C33.9269 5.60013 40.5801 3.30077 42.6533 2.7407ZM22.0593 21.3791C24.8176 18.1535 27.1225 15.9375 28.4001 14.7802L33.072 21.788L32.0857 30.3341L22.0593 21.3791Z" fill="#3C484B"/>
</g>
<defs>
<clipPath id="clip0">
<rect width="89" height="89" fill="white"/>
</clipPath>
</defs>
</svg>
