<svg width="89" height="89" viewBox="0 0 89 89" fill="none" xmlns="http://www.w3.org/2000/svg">
<path d="M84.8282 25.0313H80.6563C80.3784 25.0312 80.1068 25.1145 79.8767 25.2703C79.6465 25.4262 79.4684 25.6474 79.3651 25.9054L76.9336 31.9844H57.0157C56.7574 31.9844 56.5043 32.0563 56.2846 32.1921C56.0649 32.3279 55.8874 32.5221 55.7719 32.7531L52.9906 38.3156C52.8846 38.5276 52.8345 38.7632 52.8451 39C52.8558 39.2368 52.9268 39.467 53.0514 39.6687C53.176 39.8703 53.3501 40.0367 53.5572 40.1522C53.7642 40.2676 53.9974 40.3282 54.2344 40.3281H76.4844V70.9219H70.9219C70.7006 70.9219 70.4824 70.9747 70.2856 71.076C70.0888 71.1773 69.919 71.3241 69.7903 71.5042L68.1407 73.8138V73.7031H65.3594V72.3125C65.3594 72.0966 65.3092 71.8837 65.2126 71.6906C65.116 71.4975 64.9759 71.3295 64.8031 71.2L59.7402 67.4028L58.5708 53.3681C58.4334 51.7295 57.7205 50.1923 56.5582 49.029L44.7411 37.212L45.7758 34.6252C46.2722 34.7183 46.7762 34.7653 47.2813 34.7656C48.3461 34.7685 49.4009 34.5602 50.3847 34.1527C51.3684 33.7452 52.2616 33.1467 53.0125 32.3917L61.5949 23.8093C62.3761 23.0263 62.8149 21.9654 62.8149 20.8594C62.8149 19.7533 62.3761 18.6925 61.5949 17.9095L60.7803 17.0948C60.5195 16.8341 60.1657 16.6876 59.7969 16.6876C59.4281 16.6876 59.0743 16.8341 58.8135 17.0948L58.4063 17.5022L58.3671 17.4629C58.1219 17.2163 57.8302 17.0207 57.5089 16.8877C57.1876 16.7546 56.8431 16.6865 56.4954 16.6875C55.957 16.6892 55.4319 16.8543 54.9895 17.161C54.547 17.4676 54.2081 17.9014 54.0175 18.4048L53.0898 20.8782L47.5707 24.5576L46.7797 23.5687C48.0831 23.356 49.2685 22.6872 50.1245 21.6815C50.9805 20.6758 51.4514 19.3988 51.4532 18.0781V13.9063C51.4538 12.952 51.2088 12.0136 50.7417 11.1814C50.2746 10.3493 49.6011 9.65142 48.7861 9.15501C47.9711 8.6586 47.042 8.38038 46.0883 8.34713C45.1346 8.31388 44.1884 8.52672 43.3408 8.96516L43.1347 8.6561C42.5012 7.70359 41.6419 6.92263 40.6334 6.38286C39.6248 5.84308 38.4983 5.56125 37.3544 5.5625C35.3738 5.56659 33.4473 6.20879 31.8603 7.39389C30.9834 8.04691 29.9542 8.46494 28.8703 8.60829C27.7864 8.75164 26.6839 8.61556 25.6674 8.21296L22.7666 7.05261C22.4963 6.94447 22.1989 6.92388 21.9163 6.99375C21.6337 7.06361 21.3801 7.22041 21.1913 7.44204C21.0026 7.66366 20.8881 7.93894 20.8641 8.22907C20.8401 8.51919 20.9078 8.80954 21.0575 9.05918L22.8985 12.1276C23.7365 13.5152 24.9177 14.6636 26.3282 15.4623C27.7388 16.2609 29.3313 16.6829 30.9523 16.6875C32.8069 16.6893 34.6202 16.1403 36.1622 15.1101C36.6566 14.7782 37.2206 14.5645 37.8107 14.4855C38.4008 14.4064 39.0012 14.4642 39.5655 14.6543L40.3282 14.9085V18.0781C40.3282 18.0843 40.3288 18.0904 40.3288 18.0966L40.3282 18.0966V18.0781H32.6592C31.3803 18.0746 30.1135 18.3248 28.932 18.8143C27.7505 19.3037 26.6778 20.0226 25.776 20.9293L18.7073 27.9981C18.0271 28.6811 17.6038 29.5781 17.5088 30.5373C17.4138 31.4965 17.653 32.4591 18.186 33.2623L19.7024 35.537C19.8903 35.8191 20.1749 36.0229 20.5025 36.1099C20.8301 36.1969 21.1783 36.1611 21.4814 36.0094L23.366 35.0671L23.7604 35.4615C24.0924 35.7933 24.5154 36.0193 24.9759 36.1107C25.4364 36.2022 25.9136 36.1551 26.3473 35.9754C26.781 35.7957 27.1517 35.4914 27.4125 35.1011C27.6733 34.7107 27.8125 34.2518 27.8125 33.7823V31.1697L32.5765 26.4058L33.4862 26.3801L32.5837 31.3441C32.261 33.1326 31.3982 34.7793 30.1114 36.0626C28.7047 37.4711 27.6792 39.214 27.1312 41.1277L25.566 46.6056L14.7518 40.5977L12.1084 37.9542C11.9718 37.8176 11.8082 37.7109 11.628 37.641C11.4479 37.5711 11.2551 37.5396 11.0621 37.5483C10.8691 37.5571 10.68 37.606 10.5069 37.6919C10.3338 37.7778 10.1805 37.8988 10.0568 38.0472L3.10366 46.391C2.88147 46.6576 2.76697 46.9976 2.78268 47.3442C2.79838 47.6909 2.94315 48.0192 3.18854 48.2646L4.57916 49.6552C4.74102 49.8171 4.94039 49.9366 5.15954 50.003C5.37868 50.0693 5.61083 50.0805 5.83535 50.0355L12.1787 48.7668L20.7173 55.1708C22.316 56.3646 24.2568 57.0115 26.252 57.0156C27.8175 57.0206 29.3581 56.6248 30.7274 55.8659C32.0966 55.107 33.2488 54.0103 34.0743 52.6801L37.8535 46.6332L48.7802 56.3457L51.4532 71.0472V73.7031H8.3438C8.10364 73.7031 7.86758 73.7653 7.6586 73.8837C7.44962 74.002 7.27484 74.1724 7.15127 74.3783L2.9794 81.3315C2.85279 81.5425 2.78446 81.7833 2.78136 82.0294C2.77826 82.2755 2.84052 82.5179 2.96178 82.7321C3.08303 82.9462 3.25894 83.1244 3.47154 83.2483C3.68415 83.3722 3.92583 83.4375 4.17192 83.4375H84.8282C85.197 83.4375 85.5507 83.291 85.8115 83.0302C86.0723 82.7694 86.2188 82.4157 86.2188 82.0469V26.4219C86.2188 26.0531 86.0723 25.6994 85.8115 25.4386C85.5507 25.1778 85.197 25.0313 84.8282 25.0313ZM81.5977 27.8125H83.4375V31.9844H79.9291L81.5977 27.8125ZM57.8751 34.7656H83.4375V37.5469H56.4845L57.8751 34.7656ZM42.3475 35.7074L35.1494 32.6225C35.2144 32.365 35.2722 32.1049 35.3201 31.8416L36.1968 27.0199C36.2782 27.1124 36.3617 27.2034 36.4496 27.2914L41.5502 32.3918C42.0354 32.8773 42.58 33.2995 43.171 33.6486L42.3475 35.7074ZM48.0527 27.5789L55.0058 22.9435C55.2484 22.7818 55.434 22.5478 55.5364 22.2748L56.5482 19.5772L57.4229 20.4521C57.6837 20.7128 58.0375 20.8593 58.4063 20.8593C58.7751 20.8593 59.1289 20.7128 59.3897 20.4521L59.7825 20.0592C59.9705 20.3272 60.058 20.6529 60.0298 20.979C60.0016 21.3052 59.8594 21.611 59.6282 21.8427L51.0459 30.425C50.0475 31.4234 48.6934 31.9844 47.2814 31.9844C45.8694 31.9844 44.5153 31.4235 43.5168 30.4251L38.4164 25.3248C38.1399 25.0498 37.9207 24.7226 37.7714 24.3623C37.6222 24.002 37.5459 23.6156 37.5469 23.2256C37.5469 22.7353 37.6993 22.2571 37.9828 21.8571C38.2664 21.4571 38.6673 21.1551 39.1299 20.9928C39.5926 20.8305 40.0943 20.8159 40.5656 20.9511C41.0369 21.0863 41.4546 21.3646 41.7609 21.7474L46.1954 27.2906C46.4128 27.5623 46.7241 27.7426 47.0679 27.796C47.4118 27.8494 47.7631 27.7719 48.0527 27.5789ZM48.6719 18.0781C48.6725 18.6127 48.5187 19.1362 48.2292 19.5856C47.9397 20.035 47.5267 20.3914 47.0396 20.612C46.5526 20.8325 46.0123 20.9078 45.4836 20.829C44.9548 20.7501 44.46 20.5204 44.0586 20.1673L43.9327 20.01C43.816 19.8645 43.6917 19.7253 43.5601 19.5931C43.2654 19.1428 43.1087 18.6162 43.1094 18.0781V18.07C44.7679 17.9911 46.3302 17.2686 47.4643 16.0559L48.6719 17.2635V18.0781ZM48.59 13.2483L48.2647 12.923C48.1089 12.7671 47.9183 12.6506 47.7086 12.5829C47.4989 12.5152 47.2761 12.4983 47.0586 12.5335C46.8411 12.5688 46.6351 12.6553 46.4576 12.7858C46.28 12.9163 46.1361 13.0872 46.0375 13.2843C45.7617 13.8403 45.3475 14.316 44.8347 14.6656C44.3219 15.0152 43.7277 15.227 43.1094 15.2806V13.9063C43.109 13.2262 43.358 12.5695 43.8092 12.0606C44.2603 11.5517 44.8824 11.2259 45.5577 11.1448C46.2329 11.0638 46.9145 11.2331 47.4733 11.6207C48.0321 12.0083 48.4294 12.5874 48.59 13.2483ZM34.6195 12.796C33.1857 13.7519 31.4353 14.1101 29.7413 13.7944C28.0472 13.4786 26.5434 12.5139 25.5502 11.1057C26.9055 11.483 28.3291 11.5452 29.712 11.2875C31.095 11.0298 32.4007 10.459 33.529 9.61878C34.634 8.79372 35.9754 8.34663 37.3544 8.34375C38.0404 8.34301 38.7159 8.51202 39.3207 8.83571C39.9255 9.1594 40.4408 9.62772 40.8206 10.1989L41.2504 10.8436C40.9955 11.2286 40.7896 11.644 40.6376 12.08L40.445 12.0158C39.4791 11.6905 38.4514 11.5916 37.4413 11.7269C36.4312 11.8622 35.4657 12.228 34.6195 12.796V12.796ZM31.9452 23.6412C31.5901 23.6512 31.2523 23.7968 31.001 24.048L25.4385 29.6105C25.1778 29.8713 25.0313 30.225 25.0313 30.5938V32.799L24.6241 32.3917C24.4176 32.1853 24.1515 32.0491 23.8634 32.0024C23.5753 31.9556 23.2798 32.0007 23.0187 32.1312L21.3356 32.9728L20.5001 31.7195C20.3224 31.4518 20.2427 31.1309 20.2743 30.8112C20.306 30.4914 20.4472 30.1925 20.6739 29.9648L27.7428 22.8959C28.3869 22.2482 29.1531 21.7347 29.997 21.3852C30.8409 21.0356 31.7458 20.8569 32.6592 20.8594H35.3441C35.2039 21.1278 35.0879 21.4081 34.9973 21.6971C34.6098 22.2819 34.3013 22.9153 34.0799 23.5809L31.9452 23.6412ZM11.2184 40.9976L12.3663 42.1454L11.3801 46.0902L6.09354 47.1475L11.2184 40.9976ZM26.252 54.2344C24.8583 54.2315 23.5027 53.7796 22.386 52.9458L14.0887 46.7228L14.8157 43.8147L25.7466 49.8875C25.9297 49.9892 26.1334 50.0482 26.3425 50.0602C26.5516 50.0722 26.7607 50.0368 26.9541 49.9566C27.1476 49.8765 27.3205 49.7537 27.4599 49.5974C27.5993 49.4411 27.7015 49.2553 27.7591 49.0539L28.1429 47.7106L32.3301 50.2229L31.7157 51.2061C31.1391 52.1352 30.3344 52.9012 29.378 53.4313C28.4216 53.9614 27.3454 54.2379 26.252 54.2344ZM37.349 43.1236C37.1488 43.1523 36.9572 43.2245 36.7877 43.3349C36.6182 43.4453 36.4749 43.5914 36.3676 43.7629L33.8044 47.864L28.934 44.9418L29.8055 41.8917C30.2233 40.4324 31.0054 39.1033 32.0781 38.0292C32.9062 37.2022 33.6055 36.2557 34.1528 35.2213L42.3154 38.7195L46.7052 43.1094L42.6442 47.1704L38.4707 43.4606C38.3195 43.3262 38.1408 43.2264 37.9471 43.1681C37.7533 43.1099 37.5492 43.0947 37.349 43.1236ZM51.4308 55.3762C51.3751 55.0704 51.2187 54.7921 50.9863 54.5856L44.7266 49.0214L48.6719 45.0761L54.5916 50.9957C55.289 51.6937 55.7167 52.616 55.799 53.5992L56.9423 67.3179L53.8803 68.8488L51.4308 55.3762ZM54.2344 71.7813L58.2595 69.7688L62.5782 73.0078V73.7031H54.2344V71.7813ZM9.13111 76.4844H66.2331L63.2532 80.6563H6.62809L9.13111 76.4844ZM83.4375 80.6563H66.6711L71.6376 73.7031H83.4375V80.6563ZM83.4375 70.9219H79.2657V40.3281H83.4375V70.9219Z" fill="#3C484B"/>
</svg>
