<svg width="89" height="89" viewBox="0 0 89 89" fill="none" xmlns="http://www.w3.org/2000/svg">
<path d="M49.979 15.8549C49.9721 15.8236 49.9669 15.7941 49.9581 15.7645L49.9772 15.7732L49.979 15.8549Z" fill="#3C484B"/>
<path d="M33.375 18.0781C34.143 18.0781 34.7656 17.4555 34.7656 16.6875C34.7656 15.9195 34.143 15.2969 33.375 15.2969C32.607 15.2969 31.9844 15.9195 31.9844 16.6875C31.9844 17.4555 32.607 18.0781 33.375 18.0781Z" fill="#3C484B"/>
<path d="M37.5469 18.0781C38.3149 18.0781 38.9375 17.4555 38.9375 16.6875C38.9375 15.9195 38.3149 15.2969 37.5469 15.2969C36.7789 15.2969 36.1562 15.9195 36.1562 16.6875C36.1562 17.4555 36.7789 18.0781 37.5469 18.0781Z" fill="#3C484B"/>
<path d="M84.2945 69.0811L73.2512 53.0159C73.8346 52.496 74.3007 51.8579 74.6184 51.144C74.9361 50.4301 75.0981 49.6567 75.0938 48.8752C75.0952 44.8502 74.0016 40.9006 71.9301 37.4495L66.6579 28.6643L65.3176 23.3034C65.269 23.1088 65.1789 22.9269 65.0535 22.7703C64.9281 22.6137 64.7704 22.486 64.5911 22.396L61.8098 21.0054C61.6164 20.9096 61.4034 20.8596 61.1875 20.8594H59.7969V18.0781C59.7971 17.8111 59.7202 17.5498 59.5756 17.3253C59.431 17.1009 59.2248 16.9229 58.9817 16.8127L51.441 13.3848C51.3462 11.3385 50.6879 9.35811 49.5387 7.6623C48.3895 5.96648 46.7941 4.62113 44.9287 3.77471C43.0632 2.92828 41.0001 2.61371 38.9672 2.86569C36.9342 3.11767 35.0104 3.92642 33.408 5.20267C32.5518 4.87624 31.6394 4.72225 30.7235 4.74955C29.8075 4.77686 28.906 4.98493 28.0707 5.36179C27.2354 5.73865 26.4828 6.27688 25.8562 6.94554C25.2296 7.6142 24.7413 8.40011 24.4194 9.25809C22.9887 13.0722 22.1702 17.0886 21.9945 21.1584L21.0054 43.9021V43.909C20.908 44.7427 20.8592 45.5814 20.8594 46.4208C20.8579 48.9921 21.3074 51.5437 22.1875 53.9597L26.3333 65.3594H12.2532C10.004 65.3595 7.82825 66.16 6.11525 67.6175C4.40225 69.0751 3.26379 71.0946 2.90355 73.3147C2.54332 75.5349 2.98483 77.8108 4.14909 79.7352C5.31334 81.6596 7.12437 83.1069 9.25811 83.8182C14.0295 85.4094 19.0264 86.22 24.0561 86.2188H75.2781C77.2715 86.2188 79.227 85.6741 80.9334 84.6437C82.6398 83.6133 84.0323 82.1363 84.9605 80.3722C85.8886 78.608 86.3172 76.6238 86.1998 74.6339C86.0824 72.6439 85.4236 70.7239 84.2945 69.0811ZM59.265 23.6406H60.859L62.7746 24.5984L64.0105 29.5403C64.0433 29.6738 64.096 29.8016 64.167 29.9193L69.5452 38.8801C71.3573 41.8991 72.3139 45.3542 72.3125 48.8752C72.3153 49.5389 72.079 50.1813 71.6468 50.6848L70.7655 49.402L65.8514 37.1193C65.5476 36.3529 64.9979 35.709 64.2886 35.2889L62.5294 28.8381C62.4648 28.5995 62.3376 28.3824 62.1609 28.2095C61.9843 28.0365 61.7647 27.9139 61.5247 27.8542L57.6449 26.8843L59.265 23.6406ZM44.5 26.886L46.725 23.9188C47.8983 24.7983 49.3713 25.1794 50.8239 24.9791L54.6411 28.7964H54.6429C54.8214 28.9736 55.0441 29.0996 55.2878 29.1614L60.0594 30.3539L61.3058 34.9238C60.6645 35.1135 60.0861 35.4726 59.6317 35.9633L55.2739 31.0613C55.0735 30.8346 54.8041 30.6801 54.5073 30.6216L47.6029 29.2414L47.5542 29.2309C47.4644 29.2121 47.373 29.2027 47.2813 29.2031H44.5V26.886ZM59.378 46.9058L52.0755 43.2554C51.7451 43.0915 51.3634 43.0647 51.0133 43.1806L48.034 44.1732C46.8242 41.168 46.6523 37.8449 47.5455 34.7309L48.2669 32.2086L53.5043 33.2568L58.6653 39.0609V39.0627L59.378 46.9058ZM48.0461 47.1022L51.3471 46.0019L60.487 50.5701V50.5719C61.3494 52.0417 62.6528 53.2027 64.2121 53.8902L68.65 69.42L48.1209 58.667C46.6387 57.111 45.8057 55.0483 45.7918 52.8994C45.7779 50.7505 46.5841 48.6772 48.0461 47.1022ZM66.6961 52.4613C66.6343 52.2439 66.5202 52.0449 66.3639 51.8816C66.2076 51.7183 66.0137 51.5957 65.7992 51.5244C64.8153 51.1969 63.9484 50.5894 63.3046 49.7764C62.6608 48.9634 62.2682 47.9803 62.1749 46.9475L61.4153 38.5986C61.3942 38.368 61.4568 38.1376 61.5916 37.9494C61.7264 37.7612 61.9245 37.6278 62.1495 37.5736C62.3746 37.5194 62.6117 37.548 62.8174 37.6542C63.0231 37.7603 63.1838 37.937 63.27 38.1518L68.2397 50.5787C68.278 50.6744 68.327 50.7654 68.3858 50.8499L71.0384 54.7071L67.8 56.3255L66.6961 52.4613ZM55.625 19.4688C55.6254 19.0702 55.5828 18.6727 55.4981 18.2832L57.0157 18.9733V21.9198L55.2444 25.4641L53.5669 23.7866C54.2098 23.2655 54.7281 22.6074 55.0842 21.8604C55.4402 21.1134 55.625 20.2963 55.625 19.4688ZM49.9773 15.7732L49.9791 15.8549C49.9721 15.8236 49.967 15.794 49.9582 15.7645L49.9773 15.7732ZM50.0625 19.4688V19.2949C50.4876 18.5289 50.8196 17.7148 51.0516 16.87C51.6595 17.1013 52.1671 17.5382 52.4862 18.105C52.8052 18.6717 52.9155 19.3323 52.7979 19.972C52.6804 20.6116 52.3423 21.1898 51.8425 21.606C51.3427 22.0222 50.7129 22.2501 50.0625 22.25C49.7456 22.2508 49.431 22.1967 49.1325 22.0901C49.7355 21.3497 50.0641 20.4236 50.0625 19.4688ZM40.3282 5.56251C42.4829 5.56465 44.5534 6.39947 46.1071 7.89251C47.6607 9.38555 48.5772 11.4213 48.665 13.5742C47.9467 12.9327 47.0282 12.5599 46.066 12.5193C45.1038 12.4788 44.1573 12.7729 43.3876 13.3518C42.8695 12.6607 42.1977 12.0997 41.4253 11.7132C40.653 11.3267 39.8012 11.1253 38.9375 11.125H32.4607C33.0375 9.49917 34.1034 8.0917 35.5121 7.09576C36.9207 6.09983 38.603 5.56424 40.3282 5.56251ZM31.9844 13.9063H38.9375C39.6749 13.9072 40.3817 14.2006 40.9031 14.7219C41.4245 15.2433 41.7178 15.9502 41.7188 16.6875C41.7188 17.0563 41.8653 17.41 42.1261 17.6708C42.3869 17.9316 42.7406 18.0781 43.1094 18.0781C43.4782 18.0781 43.8319 17.9316 44.0927 17.6708C44.3535 17.41 44.5 17.0563 44.5 16.6875C44.5 16.3187 44.6465 15.965 44.9073 15.7042C45.1681 15.4434 45.5218 15.2969 45.8907 15.2969C46.2595 15.2969 46.6132 15.4434 46.874 15.7042C47.1348 15.965 47.2813 16.3187 47.2813 16.6875V19.4688C47.2808 19.8374 47.1341 20.1909 46.8734 20.4515C46.6127 20.7122 46.2593 20.8589 45.8907 20.8594H44.5V19.4688H41.7188V30.1297L40.3282 31.9844C39.6788 32.8461 38.8386 33.5456 37.8735 34.0282C36.9084 34.5107 35.8446 34.7631 34.7657 34.7656C34.397 34.7651 34.0436 34.6185 33.7829 34.3578C33.5222 34.0971 33.3755 33.7437 33.375 33.375V31.3099C34.0355 30.9436 34.6118 30.443 35.0669 29.8403C35.522 29.2376 35.8457 28.5462 36.0172 27.8108C36.0641 27.8125 36.1093 27.8125 36.1563 27.8125H38.9375V25.0313H36.1563C35.0503 25.0298 33.99 24.5898 33.2079 23.8077C32.4259 23.0257 31.9859 21.9654 31.9844 20.8594V13.9063ZM31.9844 26.4184C32.394 26.7271 32.8365 26.9894 33.3038 27.2006C33.2173 27.5615 33.0549 27.8998 32.8274 28.1929C32.5999 28.4861 32.3125 28.7274 31.9844 28.9007V26.4184ZM24.7723 21.28C24.9364 17.5028 25.6961 13.7752 27.0233 10.235C27.3396 9.39431 27.9181 8.67774 28.6732 8.19126C29.4283 7.70478 30.3199 7.47423 31.2161 7.53371C29.9035 9.39921 29.2003 11.6252 29.2032 13.9063V29.2031C28.9991 29.203 28.7976 29.2478 28.6129 29.3343C28.4281 29.4208 28.2647 29.547 28.1341 29.7037L25.9734 32.299C25.3203 33.0833 24.7226 33.9122 24.1847 34.7796L24.7723 21.28ZM24.8018 53.0089C23.6491 49.84 23.3479 46.4241 23.9284 43.1023C24.5088 39.7806 25.9506 36.6692 28.1098 34.079L29.855 31.9844H30.5938V33.375C30.5952 34.481 31.0352 35.5413 31.8173 36.3233C32.5994 37.1054 33.6597 37.5454 34.7657 37.5469C36.2762 37.5434 37.7655 37.19 39.1166 36.5144C40.4677 35.8389 41.644 34.8595 42.5532 33.6532L43.8047 31.9844H45.437L44.872 33.966C43.7648 37.8266 44.0327 41.9519 45.6299 45.6368C44.1402 47.4171 43.2383 49.615 43.0481 51.9286C42.8579 54.2422 43.3888 56.5578 44.5678 58.5575C42.8622 60.2722 40.8346 61.633 38.6014 62.5617C36.3683 63.4903 33.9736 63.9685 31.555 63.9688H28.786L24.8018 53.0089ZM58.0777 83.4375H38.9375V77.5464L39.9631 77.8263C40.1996 77.8905 40.4488 77.8912 40.6856 77.8284C40.9224 77.7655 41.1385 77.6413 41.312 77.4683C41.9148 76.8639 42.6928 76.4649 43.5353 76.3279C44.3779 76.1909 45.2422 76.3229 46.0054 76.7051L58.2255 82.8152C58.2915 82.8485 58.3444 82.903 58.3756 82.9701C58.4068 83.0371 58.4145 83.1128 58.3974 83.1847C58.3803 83.2567 58.3395 83.3207 58.2815 83.3666C58.2235 83.4125 58.1517 83.4375 58.0777 83.4375ZM75.2781 83.4375H61.1701C61.1821 83.3284 61.1879 83.2187 61.1875 83.1089C61.1895 82.531 61.0294 81.9641 60.7255 81.4725C60.4217 80.981 59.9861 80.5844 59.4683 80.3277L47.25 74.2177C46.0922 73.6378 44.7937 73.3985 43.5054 73.5274C42.217 73.6563 40.9917 74.1483 39.9718 74.946L30.9119 72.4742C27.0961 71.4301 23.1122 71.1472 19.1872 71.6416L13.7342 72.3229L14.0784 75.0833L19.5331 74.4019C23.0973 73.9528 26.7151 74.2097 30.1801 75.1581L36.1563 76.7886V83.4375H24.0561C19.3253 83.4391 14.6253 82.6766 10.1377 81.1794C8.63046 80.677 7.35118 79.6547 6.52876 78.2954C5.70634 76.936 5.39445 75.3284 5.64889 73.7601C5.90333 72.1919 6.7075 70.7653 7.91751 69.7357C9.12752 68.7062 10.6644 68.1407 12.2532 68.1406H27.8125C27.9952 68.1407 28.176 68.1047 28.3448 68.0349C28.5135 67.965 28.6668 67.8626 28.796 67.7334C28.9251 67.6043 29.0275 67.451 29.0974 67.2822C29.1673 67.1135 29.2032 66.9326 29.2032 66.75H31.555C37.0563 66.7482 42.3402 64.6026 46.2852 60.7686L46.2974 60.7808C46.3976 60.8797 46.5119 60.9634 46.6364 61.0293L75.8395 76.3262L77.1293 73.8613L72.0501 71.2017L68.5769 59.0477L72.6289 57.0226L82.0018 70.6559C82.8441 71.881 83.3356 73.313 83.4233 74.7971C83.511 76.2813 83.1915 77.7612 82.4994 79.0769C81.8072 80.3927 80.7687 81.4944 79.496 82.2629C78.2233 83.0314 76.7648 83.4376 75.2781 83.4375Z" fill="#3C484B"/>
</svg>
